<svg xmlns="http://www.w3.org/2000/svg" data-name="1" viewBox="0 0 128 128"><path d="M126 80H70a2 2 0 0 0-2 2v44a2 2 0 0 0 2 2h56a2 2 0 0 0 2-2V82a2 2 0 0 0-2-2Zm-2 44H72V84h52Z"/><circle cx="102" cy="12" r="2"/><circle cx="94" cy="12" r="2"/><circle cx="86" cy="12" r="2"/><path d="M62 108H7a3 3 0 0 1-3-3V24h108v50a2 2 0 0 0 4 0V7a7 7 0 0 0-7-7H7a7 7 0 0 0-7 7v98a7 7 0 0 0 7 7h55a2 2 0 0 0 0-4zM7 4h102.1a3 3 0 0 1 3 3v13H4V7a3 3 0 0 1 3-3zm92 110a10 10 0 0 0 4.66-1.15 2 2 0 0 0-1.86-3.54 5.92 5.92 0 0 1-2.8.69 6 6 0 0 1 0-12 5.92 5.92 0 0 1 2.59.59 2 2 0 1 0 1.73-3.59A9.9 9.9 0 0 0 99 94a10 10 0 0 0 0 20z"/><path d="M43.33 48.67a2 2 0 0 0-2.83 0L29.59 59.59a2 2 0 0 0 0 2.82L40.5 73.33a2 2 0 0 0 1.41.58 2 2 0 0 0 1.42-3.41l-9.5-9.5 9.5-9.5a2 2 0 0 0 0-2.83zM66.12 42a2 2 0 0 0-2.65 1L47.89 77.32a2 2 0 0 0 1 2.65 2 2 0 0 0 2.65-1l15.57-34.29a2 2 0 0 0-.99-2.68zm5.55 31.33a2 2 0 0 0 1.42.58 2 2 0 0 0 1.41-.58l10.91-10.92a2 2 0 0 0 0-2.82L74.5 48.67a2 2 0 0 0-2.83 2.83l9.5 9.5-9.5 9.5a2 2 0 0 0 0 2.83z"/></svg>
