<svg width="256px" height="256px" viewBox="0 0 32.00 32.00" fill="none" xmlns="http://www.w3.org/2000/svg"><g id="SVGRepo_bgCarrier" stroke-width="0" transform="translate(0,0), scale(1)"></g><g id="SVGRepo_tracerCarrier" stroke-linecap="round" stroke-linejoin="round" stroke="#ff0505" stroke-width="0.064"></g><g id="SVGRepo_iconCarrier"> <path d="M22 10C22 10 21 9 21 8C21 7 22 6 22 6C22 6 23 5 23 4C23 3 22 2 22 2M17 10C17 10 16 9 16 8C16 7 17 6 17 6C17 6 18 5 18 4C18 3 17 2 17 2M11 31H27M6 22.0029C6 22.0029 6 21.9999 5 21.9999C2.791 21.9999 1 20.2089 1 17.9999C1 15.7909 2.791 13.9999 5 13.9999H30C30.386 13.9999 31 13.9999 31 14.9999C31 21.6269 25.627 26.9999 19 26.9999C13.054 26.9999 8.117 22.6739 7.166 16.9979" stroke="#ffffff" stroke-width="1.376" stroke-linecap="round" stroke-linejoin="round"></path> </g></svg>
